<svg xmlns="http://www.w3.org/2000/svg" viewBox="0 0 26.47 34.33"><defs><style>.cls-1{fill:#808184;}.cls-2{fill:#d0d2d3;}.cls-3{fill:#fff;}</style></defs><title>Asset 8</title><g id="Layer_2" data-name="Layer 2"><g id="Layer_1-2" data-name="Layer 1"><path class="cls-1" d="M17.06,1.31a.86.86,0,0,1,.86.85V5.8a.86.86,0,0,1-.86.86H11.7a.85.85,0,0,1-.86-.86V2.16a.85.85,0,0,1,.86-.85h5.36m0-1.31H11.7A2.17,2.17,0,0,0,9.53,2.16V5.8A2.17,2.17,0,0,0,11.7,8h5.36A2.17,2.17,0,0,0,19.22,5.8V2.16A2.16,2.16,0,0,0,17.06,0Z"/><rect class="cls-1" y="3.98" width="26.47" height="4.18" rx="1.93"/><path class="cls-2" d="M21.18,34.33H14a2.34,2.34,0,0,1-2.35-1.82L7.79,11.92a2.25,2.25,0,0,1,2.35-2.55H23a2.26,2.26,0,0,1,2.35,2.55L21.18,34.33"/><path class="cls-2" d="M13.46,34.33h0s0-.77,0-1.83l0-20.66c0-1.34,0-2.57,0-2.57h-.1s0,1.23,0,2.57l0,22.49"/><path class="cls-2" d="M5.74,34.33h7.33a2.35,2.35,0,0,0,2.37-1.83L19.3,11.76a2.27,2.27,0,0,0-2.37-2.58h-13a2.27,2.27,0,0,0-2.37,2.58l4.2,22.57"/><path class="cls-3" d="M7.1,28.46,5.76,15.29a1.36,1.36,0,0,1,1.18-1.54h0a1.4,1.4,0,0,1,1.47,1.3L9.75,28.22a1.36,1.36,0,0,1-1.18,1.54h0A1.39,1.39,0,0,1,7.1,28.46Z"/><path class="cls-3" d="M17.29,28.15,18.85,15a1.42,1.42,0,0,1,1.44-1.32h0a1.3,1.3,0,0,1,1.09,1.52L19.81,28.36a1.42,1.42,0,0,1-1.43,1.32h0A1.29,1.29,0,0,1,17.29,28.15Z"/><rect class="cls-3" x="5.57" y="20.27" width="16.11" height="2.86" rx="1.43" transform="translate(-8.08 35.32) rotate(-90)"/></g></g></svg>