<svg xmlns="http://www.w3.org/2000/svg" viewBox="0 0 43.15 38.81"><defs><style>.cls-1{fill:#fff;}.cls-2,.cls-5{fill: #4d5154;}.cls-3,.cls-4{fill:#808184;}.cls-3{stroke:#808184;}.cls-3,.cls-4,.cls-5{stroke-linecap:round;stroke-miterlimit:10;stroke-width:2px;}.cls-4,.cls-5{stroke:#929497;}</style></defs><title>Asset 7</title><g id="Layer_2" data-name="Layer 2"><g id="Layer_1-2" data-name="Layer 1"><rect class="cls-1" width="43.15" height="38.81" rx="4.34"/><path class="cls-2" d="M33,30.86H10.66A2.67,2.67,0,0,1,7.8,28.43V13.55A2.19,2.19,0,0,1,8.42,12a3.05,3.05,0,0,1,2.24-.92H33a2.67,2.67,0,0,1,2.86,2.43V28.43A2.67,2.67,0,0,1,33,30.86Z"/><line class="cls-3" x1="24.43" y1="22.02" x2="34.36" y2="29.65"/><line class="cls-3" x1="18.77" y1="22.02" x2="8.83" y2="29.65"/><line class="cls-4" x1="21.57" y1="23.46" x2="34.36" y2="12.6"/><line class="cls-5" x1="8.83" y1="12.94" x2="20.96" y2="23"/></g></g></svg>