<svg xmlns="http://www.w3.org/2000/svg" viewBox="0 0 20.42 22.47"><defs><style>.cls-1{fill:#94989b;}.cls-1,.cls-2{fill-rule:evenodd;}.cls-2{fill:#b2c1c0;}</style></defs><title>Asset 14</title><g id="Layer_2" data-name="Layer 2"><g id="Layer_1-2" data-name="Layer 1"><path class="cls-1" d="M2.09,1.87C1.48,2.54.3,6.8,5.31,12.32c1.6,1.76,2.78.46,3.78,1.57l9,9.86a3.57,3.57,0,0,0,2.23-2.52L2.54,1.69S2.4,1.53,2.09,1.87Z" transform="translate(-0.68 -1.47)"/><path class="cls-2" d="M21,4.85c.24-.49-.3-.34-.3-.34s-3.62,3.82-4.12,3.36,3.54-4.13,3.06-4.82-4,3.92-4.42,3.36,3-4.54,3-4.54.14-.6-.31-.34c-5.45,3.23-6.14,6.23-6.14,6.23a1.13,1.13,0,0,0,.22,1S2.13,19.76.79,21.23c-.65.72,1.74,3.3,2.38,2.58,1.34-1.47,11.25-12.47,11.28-12.43a.89.89,0,0,0,.94.25S18.12,10.86,21,4.85Z" transform="translate(-0.68 -1.47)"/></g></g></svg>